<svg id="prize2" xmlns="http://www.w3.org/2000/svg" xmlns:xlink="http://www.w3.org/1999/xlink" viewBox="100 0 250 330">
  <g opacity="0">
    <g id="cloud1p">
      <line x1="65.43" y1="77.72" x2="105.21" y2="77.72" fill="none" stroke="#fff" stroke-linecap="round" stroke-miterlimit="10" stroke-width="2"/>
      <path d="M85.22,67.45H57.86a12.4,12.4,0,1,0-24.8,0H15.13" fill="none" stroke="#fff" stroke-linecap="round" stroke-miterlimit="10" stroke-width="2"/>
      <line x1="93.48" y1="67.45" x2="115.68" y2="67.45" fill="none" stroke="#fff" stroke-linecap="round" stroke-miterlimit="10" stroke-width="2"/>
      <animateTransform attributeName="transform"
                        type="translate"
                        from="90 0"
                        to="0 0"
                        dur="0.3s"
                        begin="prize2StartPoint.begin"
                        calcMode="spline"
                        keySplines="0, 0, 0.58, 1"
                        keyTimes="0; 1"
                        fill="freeze"/>
      <animateTransform id="hideCloud"
                    attributeName="transform"
                    type="translate"
                    from="0 0"
                    to="0 -54"
                    dur="0.3s"
                    begin="flying.begin + 0.4s"
                    calcMode="spline"
                    keySplines="0.42, 0, 1, 1"
                    keyTimes="0; 1"
                    fill="freeze"/>
      <animate attributeName="opacity"
                from="1"
                to="0"
                dur="0.3s"
                begin="hideCloud.begin"
                fill="freeze"/>
    </g>
    <g id="cloud2p">
      <line x1="272.13" y1="145.27" x2="311.9" y2="145.27" fill="none" stroke="#fff" stroke-linecap="round" stroke-miterlimit="10" stroke-width="2"/>
      <line x1="300.17" y1="135" x2="322.37" y2="135" fill="none" stroke="#fff" stroke-linecap="round" stroke-miterlimit="10" stroke-width="2"/>
      <g>
        <path d="M235.77,119H216.32a35.49,35.49,0,0,0-68-13.69A26.34,26.34,0,0,0,135.43,102a26.72,26.72,0,0,0-24.8,17H95.48a10.49,10.49,0,0,0,0,21h140.3a10.49,10.49,0,0,0,0-21" fill="#fff"/>
      </g>
      <animateTransform id="cloudMove2"
                        attributeName="transform"
                        type="translate"
                        from="130 0"
                        to="0 0"
                        dur="0.35s"
                        begin="prize2StartPoint.begin"
                        calcMode="spline"
                        keySplines="0, 0, 0.58, 1"
                        keyTimes="0; 1"
                        fill="freeze"/>
      <animateTransform id="hideCloud"
                    attributeName="transform"
                    type="translate"
                    from="0 0"
                    to="0 -72"
                    dur="0.3s"
                    begin="hideCloud.begin"
                    calcMode="spline"
                    keySplines="0.42, 0, 1, 1"
                    keyTimes="0; 1"
                    fill="freeze"/>
      <animate attributeName="opacity"
                from="1"
                to="0"
                dur="0.3s"
                begin="hideCloud.begin"
                fill="freeze"/>
    </g>
    <g id="leafB">
      <path d="M263.47,206.82a2,2,0,0,1,3.15,2c-1,7-2.07,20.33,4.85,19.4,4.94-.66-16.65-31.53,19.32-38.16a2,2,0,0,1,2.18,2.89c-1.32,2.74-2.83,6.61-2.73,9.9a2,2,0,0,0,3.71,1c4.1-6.15,15.1-17.86,36.59-10.7a2,2,0,0,1,1.35,1.54c0.93,4.8,4.13,23.24-.29,28.72-5.09,6.31-15,4.14-16.18,10.25-1.3,6.91,7.51,4.82,13.42-.22a2,2,0,0,1,3.32,1.64c-0.25,5.45-2.18,14-11.12,18.69-13.78,7.21-23.48-7-25.19-3.88-2.59,4.66,7.94,8.47,13.78,10.18a2,2,0,0,1,.61,3.59c-10.52,7.74-29.13,10.28-37-5.41-8.3-16.59-12.93-12.49-18.19-20.38-5.71-8.57-4.33-22.54,8.38-31.05m29.4,32.47c0.5,2.73,5.2,3.51,8.35,2.94s8.47-3.83,8-6.56-6.62-3.9-9.78-3.33-7.05,4.22-6.55,6.95" fill="#e81a5a">
        <animateTransform attributeName="transform"
                          type="rotate"
                          values="-3 258 247; 3 258 247; -3 258 247"
                          dur="1.6s"
                          keyTimes="0; 0.5; 1"
                          keySplines="0.45, 0, 0.55, 1; 0.45, 0, 0.55, 1"
                          calcMode="spline"
                          repeatCount="indefinite"/>
      </path>
      <path d="M263,327.88s-4.91-70.27,5.54-80.72" fill="none" stroke="#e81a5a" stroke-miterlimit="10" stroke-width="2"/>
    </g>
    <g id="case" opacity="0">
      <g>
        <path fill="#A67EE5" d="M28.9,54c1.9,0,3.5-1.6,3.5-3.5v-5.1c0-1.9-1.6-3.5-3.5-3.5c-1.9,0-3.5,1.6-3.5,3.5c0,0,0,0,0,0v5.1 C25.4,52.4,27,54,28.9,54" />
        <path fill="none" stroke="#FFFFFF" stroke-width="2" stroke-miterlimit="10" d="M28.9,54c1.9,0,3.5-1.6,3.5-3.5v-5.1 c0-1.9-1.6-3.5-3.5-3.5c-1.9,0-3.5,1.6-3.5,3.5c0,0,0,0,0,0v5.1C25.4,52.4,27,54,28.9,54z" />
        <path fill="#A67EE5" d="M-46.6,54c1.9,0,3.5-1.6,3.5-3.5v-5.1c0-1.9-1.6-3.5-3.5-3.5c-1.9,0-3.5,1.6-3.5,3.5c0,0,0,0,0,0v5.1 C-50.1,52.4-48.6,54-46.6,54" />
        <path fill="none" stroke="#FFFFFF" stroke-width="2" stroke-miterlimit="10" d="M-46.6,54c1.9,0,3.5-1.6,3.5-3.5v-5.1 c0-1.9-1.6-3.5-3.5-3.5c-1.9,0-3.5,1.6-3.5,3.5c0,0,0,0,0,0v5.1C-50.1,52.4-48.6,54-46.6,54z" />
        <path fill="#A67EE5" d="M-52,45.4h74.5c6.3,0,11.3-5.1,11.3-11.4V-32c0-6.3-5.1-11.3-11.4-11.4H-52c-6.3,0-11.3,5.1-11.4,11.4V34 C-63.4,40.3-58.3,45.4-52,45.4" />
        <path fill="none" stroke="#FFFFFF" stroke-width="2" stroke-miterlimit="10" d="M-52-43.4h74.5c6.3,0,11.4,5.1,11.4,11.4V34 c0,6.3-5.1,11.4-11.4,11.4H-52c-6.3,0-11.4-5.1-11.4-11.4V-32C-63.4-38.3-58.3-43.4-52-43.4z" />
        <path fill="#A67EE5" d="M-23.7-55.8H8.7c2.3,0,4.1,1.8,4.1,4.1v16c0,0.7-0.5,1.2-1.2,1.2l0,0H8.9c-0.7,0-1.2-0.5-1.2-1.2l0,0V-50 c0-0.7-0.6-1.3-1.3-1.3c0,0,0,0,0,0h-27.9c-0.7,0-1.3,0.6-1.3,1.3c0,0,0,0,0,0v14.4c0,0.7-0.5,1.2-1.2,1.2l0,0h-2.7 c-0.7,0-1.2-0.5-1.2-1.2l0,0v-16C-27.8-53.9-25.9-55.7-23.7-55.8" />
        <path fill="none" stroke="#FFFFFF" stroke-width="2" stroke-miterlimit="10" d="M-23.7-55.8H8.7c2.3,0,4.1,1.8,4.1,4.1v16 c0,0.7-0.5,1.2-1.2,1.2l0,0H8.9c-0.7,0-1.2-0.5-1.2-1.2l0,0V-50c0-0.7-0.6-1.3-1.3-1.3c0,0,0,0,0,0h-27.9c-0.7,0-1.3,0.6-1.3,1.3 c0,0,0,0,0,0v14.4c0,0.7-0.5,1.2-1.2,1.2l0,0h-2.7c-0.7,0-1.2-0.5-1.2-1.2l0,0v-16C-27.8-53.9-26-55.7-23.7-55.8z" />
        <path fill="#A67EE5" d="M-37.6,45.4h74.5c6.3,0,11.3-5.1,11.4-11.4V-32c0-6.3-5.1-11.3-11.4-11.4h-74.5c-6.3,0-11.3,5.1-11.3,11.4 V34C-48.9,40.3-43.9,45.4-37.6,45.4" />
        <path fill="none" stroke="#FFFFFF" stroke-width="2" stroke-miterlimit="10" d="M-37.6,45.4h74.5c6.3,0,11.3-5.1,11.4-11.4V-32 c0-6.3-5.1-11.3-11.4-11.4h-74.5c-6.3,0-11.3,5.1-11.3,11.4V34C-48.9,40.3-43.9,45.4-37.6,45.4z" />
        <line fill="none" stroke="#FFFFFF" stroke-width="2" stroke-linecap="round" stroke-miterlimit="10" x1="31.3" y1="-22.5" x2="-32" y2="-22.5" />
        <line fill="none" stroke="#FFFFFF" stroke-width="2" stroke-linecap="round" stroke-miterlimit="10" x1="31.3" y1="1" x2="-32" y2="1" />
        <line fill="none" stroke="#FFFFFF" stroke-width="2" stroke-linecap="round" stroke-miterlimit="10" x1="31.3" y1="24.5" x2="-32" y2="24.5" />
        <path fill="#A67EE5" d="M-54.8-21.2h0.7v44.5h-0.7c-1.9,0-3.5-1.6-3.5-3.5v-37.4C-58.4-19.7-56.8-21.2-54.8-21.2 C-54.8-21.2-54.8-21.2-54.8-21.2" />
        <path fill="none" stroke="#FFFFFF" stroke-width="2" stroke-miterlimit="10" d="M-54.8-21.2h0.7v44.5h-0.7c-1.9,0-3.5-1.6-3.5-3.5 v-37.4C-58.4-19.7-56.8-21.2-54.8-21.2C-54.8-21.2-54.8-21.2-54.8-21.2z" />
      </g>
      <line fill="none" stroke="#FFFFFF" stroke-width="2" stroke-linecap="round" stroke-linejoin="round" x1="-7.5" y1="-56" x2="-63.1" y2="-135.9" />
      <line fill="none" stroke="#FFFFFF" stroke-width="2" stroke-linecap="round" stroke-linejoin="round" x1="-7.5" y1="-56" x2="-26" y2="-135.9" />
      <line fill="none" stroke="#FFFFFF" stroke-width="2" stroke-linecap="round" stroke-linejoin="round" x1="11" y1="-135.9" x2="-7.5" y2="-56" />
      <line fill="none" stroke="#FFFFFF" stroke-width="2" stroke-linecap="round" stroke-linejoin="round" x1="48.1" y1="-135.9" x2="-7.5" y2="-56" />
      <g>
        <path fill="#FFFFFF" d="M-7.5-191.5c30.7,0,55.5,24.9,55.5,55.6c0-6.8-8.3-12.2-18.5-12.2s-18.3,5.4-18.5,12c0,0.1,0,0.2,0,0.3 c0-6.8-8.3-12.2-18.5-12.2s-18.5,5.5-18.5,12.2c0-0.1,0-0.2,0-0.3c-0.2-6.6-8.4-12-18.5-12s-18.5,5.5-18.5,12.2 C-63.1-166.6-38.2-191.5-7.5-191.5C-7.5-191.5-7.5-191.5-7.5-191.5 M-7.5-193.2c-31.6,0.1-57.2,25.7-57.2,57.2 c0,0.9,0.7,1.7,1.7,1.7s1.7-0.7,1.7-1.7c0-5.8,7.6-10.6,16.9-10.6c9.1,0,16.7,4.7,16.9,10.4v0.2c0,0.9,0.7,1.7,1.7,1.7 s1.7-0.7,1.7-1.7c0-5.8,7.6-10.6,16.9-10.6s16.9,4.8,16.9,10.6c0,0.9,0.7,1.7,1.7,1.7s1.7-0.7,1.7-1.7v-0.2 c0.2-5.7,7.7-10.4,16.9-10.4c9.3,0,16.9,4.8,16.9,10.6c0,0.9,0.7,1.7,1.7,1.7s1.7-0.7,1.7-1.7C49.7-167.5,24.1-193.1-7.5-193.2" />
        <path fill="#E81A5A" d="M-7.5-191.5c9.9,0,18,20.9,18.5,55.3c0.2-6.6,8.4-12,18.5-12S48-142.6,48-135.9 C48-166.6,23.2-191.5-7.5-191.5" />
        <path fill="#FE6183" d="M-7.5-191.5c-30.7,0-55.6,24.9-55.6,55.6c0-6.8,8.3-12.2,18.5-12.2s18.3,5.4,18.5,12 C-25.5-170.6-17.4-191.5-7.5-191.5" />
        <path fill="#F7396B" d="M-7.5-191.5c-9.9,0-18,20.9-18.5,55.3c0,0.1,0,0.2,0,0.3c0-6.8,8.3-12.2,18.5-12.2S11-142.6,11-135.9 c0-0.1,0-0.2,0-0.3C10.5-170.6,2.4-191.5-7.5-191.5" />
      </g>
      <animateMotion path="M179,111c24.19-9.24,29.8-15.84,29.42-20.44C207.18,75.43,138.73,51.78,96,84c-2.93,2.21-31.66,24.52-29,54,3.54,39.18,59.83,61.15,75.7,67.35,53.65,20.94,94.43,8.79,101.78,27.18,2.89,7.25.78,19.69-21.48,42.47"
                      id="flying"
                      dur="1.367s"
                      begin="cloudMove2.end"
                      fill="freeze"/>
      <animateTransform attributeName="transform"
                        type="rotate"
                        values="30; -30; 20; 18.29; -6.48; 0"
                        dur="1.367s"
                        keyTimes="0; 0.29; 0.555; 0.675; 0.915; 1"
                        keySplines="0.33, 0, 0.67, 1; 0.33, 0, 0.67, 1; 0.33, 0, 0.67, 1; 0.33, 0, 0.67, 1; 0.17, 0, 0.83, 1"
                        calcMode="spline"
                        begin="cloudMove2.end"
                        fill="freeze"/>
      <animateTransform attributeName="transform"
                        type="scale"
                        values="0; 0; 0.29; 0.555; 0.675; 0.915; 1"
                        dur="1.367s"
                        keyTimes="0; 0.03; 0.29; 0.555; 0.675; 0.915; 1"
                        keySplines="0.33, 0, 0.67, 1; 0.33, 0, 0.67, 1; 0.33, 0, 0.67, 1; 0.33, 0, 0.67, 1; 0.33, 0, 0.67, 1; 0.17, 0, 0.83, 1"
                        calcMode="spline"
                        begin="cloudMove2.end"
                        additive="sum"
                        fill="freeze"/>
      <animate attributeName="opacity"
              from="0"
              to="1"
              dur="0.001s"
              begin="flying.begin"
              fill="freeze"/>
    </g>
    <g id="leafS">
      <path d="M322.92,283.4a2.14,2.14,0,0,1,.55,2.17c-1.06,3.43-4.58,12.85-12.1,16.34-5.13,2.38-8.33-2.7-10.92.77s2.1,5,6.92,4.31a2.16,2.16,0,0,1,2.14,3.34A14.34,14.34,0,0,1,297.78,317c-10.84.27-12.55-11.58-14.57-10.19-2.72,1.89,1.27,6.55,4.39,9.57a2.16,2.16,0,0,1-1.3,3.71c-8.76.84-19.72-3.51-19.8-15-0.08-12.94-4.25-11.8-5.11-18.35-0.91-6.88,3.88-14.88,13.74-16.69a2.16,2.16,0,0,1,2.31,3.11c-2.41,4.73-6,12.6-2.82,12.56,3.46,0-1.58-22.58,28.43-15.26a2.16,2.16,0,0,1,1.09,3.54l-0.1.11a2.16,2.16,0,0,0,2.41,3.45c3.66-1.52,9.16-1.27,16.47,5.84" fill="#fe6183"/>
      <path d="M245.13,327.88s3.48-30.11,21.7-30.11" fill="none" stroke="#fe6183" stroke-miterlimit="10" stroke-width="2"/>
      <animateTransform attributeName="transform"
                        type="rotate"
                        values="0 245 327; 5 245 327; -3 245 327; 1 245 327; 0 245 327"
                        dur="2s"
                        keyTimes="0; 0.4; 0.6; 0.8; 1"
                        keySplines="0.45, 0, 0.55, 1; 0.45, 0, 0.55, 1; 0.45, 0, 0.55, 1; 0.45, 0, 0.55, 1"
                        calcMode="spline"
                        repeatCount="indefinite"/>
    </g>
    <g id="floor">
      <line x1="41.13" y1="329" x2="319.13" y2="329" fill="none" stroke="#fff" stroke-width="2">
        <animateTransform attributeName="transform"
                  type="translate"
                  from="-290 0"
                  to="0 0"
                  dur="0.3s"
                  begin="prize2StartPoint.begin"
                  calcMode="spline"
                  keySplines="0, 0, 0.58, 1"
                  keyTimes="0; 1"
                  fill="freeze"/>
        <animate attributeName="x1"
                  to="147.13"
                  dur="0.3s"
                  begin="prize2StartPoint.begin + 0.1s"
                  fill="freeze"/>
        <animate attributeName="x2"
                  to="283.79"
                  dur="0.3s"
                  begin="prize2StartPoint.begin"
                  fill="freeze"/>
      </line>
    </g>
    <animate id="prize2StartPoint"
              attributeName="opacity"
              from="0"
              to="1"
              dur="0.3s"
              begin="indefinite"
              fill="freeze"/>
  </g>
</svg>
