<svg id="prize3" xmlns="http://www.w3.org/2000/svg" xmlns:xlink="http://www.w3.org/1999/xlink" viewBox="0 0 350 330">
  <g id="caseTo" opacity="0">
    <g id="caseTop2">
      <path d="M253.93,232.11a5.69,5.69,0,1,0-5.69-5.69,5.69,5.69,0,0,0,5.69,5.69" fill="#a67ee5"/>
      <circle cx="253.93" cy="226.42" r="5.69" fill="none" stroke="#fff" stroke-miterlimit="10" stroke-width="2"/>
      <path d="M240.3,210.48H67.19a12,12,0,0,0-12,11.9V276a13,13,0,0,0,13,13h184V222.38a12,12,0,0,0-11.94-11.9" fill="#a67ee5"/>
      <path d="M240.3,210.48H67.19a12,12,0,0,0-12,11.9V276a13,13,0,0,0,13,13h184V222.38A12,12,0,0,0,240.3,210.48Z" fill="none" stroke="#fff" stroke-miterlimit="10" stroke-width="2"/>
      <path d="M70.24,289V225.49a15,15,0,0,1,15-15h0.5" fill="none" stroke="#fff" stroke-width="2"/>
    </g>
    <g id="flower3">
      <path d="M180.73,277.8s8.3-74.59,39.71-90" fill="none" stroke="#fff" stroke-linecap="round" stroke-linejoin="round" stroke-width="2"/>
      <path d="M217.95,187.12l9.27-24.49a22,22,0,0,1,8.72,3,7.87,7.87,0,0,1,9.72,12.33,22.14,22.14,0,0,1,.86,9.18l-26,3.3a2.45,2.45,0,0,1-2.6-3.29" fill="#3b7bf2"/>
      <path d="M178.24,287.63s6.89-44.68,37.95-56.53" fill="none" stroke="#fff" stroke-linecap="round" stroke-linejoin="round" stroke-width="2"/>
      <path d="M210.85,232l9-16.47a16.66,16.66,0,0,1,6.13,2.93,5.93,5.93,0,0,1,4-.42,5.67,5.67,0,0,1,4.26,6.85,5.54,5.54,0,0,1-2.29,3.23,15.1,15.1,0,0,1-.21,6.58l-19.34-.11a1.76,1.76,0,0,1-1.6-2.58" fill="#3b7bf2"/>
      <animateTransform attributeName="transform"
                        type="rotate"
                        values="52 178 289; -9 178 289; 6 178 289; -1 178 289; 1 178 289"
                        dur="1.4s"
                        begin="prize3StartPoint.end"
                        calcMode="spline"
                        keySplines="0.45, 0, 0.55, 1; 0.45, 0, 0.55, 1; 0.45, 0, 0.55, 1; 0.45, 0, 0.55, 1"
                        keyTimes="0; 0.28; 0.54; 0.8; 1"
                        fill="freeze"/>
    </g>
    <g id="balloon2-wrap">
      <g id="ballon">
        <path fill="#FFFFFF" d="M-1.2-0.7L-3.4,3c-0.4,0.6-0.1,1.5,0.5,1.8C-2.6,5-2.4,5-2.2,5h4.4c0.7,0,1.3-0.6,1.3-1.3
          c0-0.2-0.1-0.5-0.2-0.7L1.2-0.7C0.8-1.4,0-1.6-0.7-1.2C-0.9-1.1-1-0.9-1.2-0.7"/>
        <path fill="#FFFFFF" d="M0-83.2c18.2,0,32.9,14.7,32.9,32.9c0,18.2-15.1,48.9-33.2,48.9s-32.6-30.7-32.6-48.9
          C-32.9-68.5-18.2-83.2,0-83.2 M0-84.8c-19,0-34.5,15.5-34.5,34.5c0,9.5,3.8,22.1,9.7,32.1C-17.8-6.4-9.1,0.2-0.4,0.2
          s17.6-6.5,24.8-18.4c6.1-10,10.1-22.6,10.1-32.1C34.5-69.3,19-84.8,0-84.8"/>
        <path fill="#76ABFF" d="M-11.7-50.2c0-18.2,5.2-32.9,11.7-32.9c-18.2,0-32.9,14.7-32.9,32.9c0,18.2,14.4,48.9,32.6,48.9h0.2
          C-6.6-1.5-11.7-32.1-11.7-50.2"/>
        <path fill="#1553B7" d="M32.9-50.2c0-18.2-14.7-32.9-32.9-32.9c6.4,0,11.7,14.7,11.7,32.9S6.4-1.7,0-1.4
          C18-1.7,32.9-32.2,32.9-50.2"/>
        <path fill="#3B7BF2" d="M11.7-50.2c0-18.2-5.2-32.9-11.7-32.9s-11.7,14.7-11.7,32.9S-6.6-1.5-0.2-1.3H0
          C6.4-1.7,11.7-32.2,11.7-50.2"/>
        <path fill="#FFFFFF" d="M-7.2-57.3c-3.1,0-5.7,2.6-5.7,5.7s2.6,5.7,5.7,5.7c3.1,0,5.7-2.6,5.7-5.7v0c0.2-3-2.1-5.5-5.1-5.7
          C-6.8-57.3-7-57.3-7.2-57.3 M-7.2-49.3c-1.9,0-3.1-0.9-3.1-2.3s1.2-2.3,3.1-2.3s3.1,0.9,3.1,2.3S-5.4-49.3-7.2-49.3"/>
        <path fill="#FFFFFF" d="M7-57.3c1,0,1.8,0.8,1.8,1.8c0,0.4-0.1,0.7-0.3,1L-4.9-35.1c-0.6,0.7-1.8,0.8-2.5,0.2
          c-0.6-0.5-0.8-1.4-0.4-2.2L5.5-56.5C5.9-56.9,6.4-57.2,7-57.3"/>
        <path fill="#FFFFFF" d="M8.5-45.7c-3.1,0-5.7,2.6-5.7,5.7s2.6,5.7,5.7,5.7c3.1,0,5.7-2.6,5.7-5.7v0c0.2-3-2.1-5.5-5.1-5.7
          C8.9-45.7,8.7-45.7,8.5-45.7 M8.5-37.7c-1.9,0-3.1-0.9-3.1-2.3s1.2-2.3,3.1-2.3s3.1,0.9,3.1,2.3S10.3-37.7,8.5-37.7"/>
        <animateTransform attributeName="transform"
                  type="translate"
                  values="104 322; 109 167; 114 193; 101 157; 106 178; 112 166.71; 110 169; 107.65 166.71"
                  dur="2s"
                  begin="prize3StartPoint.end"
                  calcMode="spline"
                  keySplines="0.25, 0.04, 0.5, 0.5; 0.36, 0.36, 0.58, 1; 0.47, 0.05, 0.23, 0.22; 0.36, 0.36, 0.58, 1; 0.47, 0.05, 0.23, 0.22; 0, 0, 1, 1; 0, 0, 1, 1"
                  keyTimes="0; 0.19; 0.31; 0.48; 0.63; 0.76; 0.88; 1"
                  fill="freeze"/>
        <animateTransform attributeName="transform"
                  type="rotate"
                  values="50; -10; 7; -5; 4; 0"
                  dur="2s"
                  begin="prize3StartPoint.end"
                  calcMode="spline"
                  keySplines="0.47, 0.05, 0.23, 0.22; 0.47, 0.05, 0.23, 0.22; 0.47, 0.05, 0.23, 0.22; 0.47, 0.05, 0.23, 0.22; 0.47, 0.05, 0.23, 0.22"
                  keyTimes="0; 0.23; 0.45; 0.6; 0.78; 1"
                  additive="sum"
                  fill="freeze"/>
      </g>
      <line x1="107.65" y1="166.71" x2="107.65" y2="289.02" fill="none" stroke="#fff" stroke-linecap="round" stroke-miterlimit="10" stroke-width="2">
        <animate attributeName="x1"
                  values="104; 109; 114; 101; 106; 112; 110; 107.65"
                  dur="2s"
                  begin="prize3StartPoint.end"
                  calcMode="spline"
                  keySplines="0.25, 0.04, 0.5, 0.5; 0.36, 0.36, 0.58, 1; 0.47, 0.05, 0.23, 0.22; 0.36, 0.36, 0.58, 1; 0.47, 0.05, 0.23, 0.22; 0.42 0 0.58 0.58; 0.48 0.48 0.58 1"
                  keyTimes="0; 0.19; 0.31; 0.48; 0.63; 0.76; 0.88; 1"
                  fill="freeze"/>
        <animate attributeName="y1"
                  values="322; 167; 193; 157; 178; 166.71; 169; 166.71"
                  dur="2s"
                  begin="prize3StartPoint.end"
                  calcMode="spline"
                  keySplines="0.25, 0.04, 0.5, 0.5; 0.36, 0.36, 0.58, 1; 0.47, 0.05, 0.23, 0.22; 0.36, 0.36, 0.58, 1; 0.47, 0.05, 0.23, 0.22; 0.42 0 0.58 0.58; 0.48 0.48 0.58 1"
                  keyTimes="0; 0.19; 0.31; 0.48; 0.63; 0.76; 0.88; 1"
                  fill="freeze"/>
      </line>
    </g>
    <g id="flower1">
      <path d="M141.77,204.16c24.1,32.45,35.81,84,35.81,84" fill="none" stroke="#3b7bf2" stroke-linecap="round" stroke-linejoin="round" stroke-width="2"/>
      <path d="M125.73,196.22c6.54,7.51,17.16,9,17.16,9s0-10.72-6.53-18.22-17.17-9-17.17-9,0,10.72,6.54,18.22" fill="#76abff"/>
      <path d="M153.17,206.54c-2.69,9.58,1.91,19.27,1.91,19.27s9-5.86,11.67-15.45-1.91-19.27-1.91-19.27-9,5.86-11.67,15.45" fill="#3b7bf2"/>
      <path d="M135.82,227.71c9.59,2.7,19.26-1.91,19.26-1.91s-5.86-9-15.45-11.67S120.37,216,120.37,216s5.87,9,15.45,11.67" fill="#3b7bf2"/>
      <path d="M166.1,232.52c-3.41,9.36.47,19.35,0.47,19.35s9.39-5.18,12.79-14.53S178.89,218,178.89,218s-9.39,5.18-12.79,14.53" fill="#1553b7"/>
      <path d="M147.22,252.35c9.36,3.4,19.35-.47,19.35-0.47s-5.18-9.39-14.54-12.79-19.35.47-19.35,0.47,5.18,9.39,14.54,12.79" fill="#1553b7"/>
      <animateTransform attributeName="transform"
                        type="rotate"
                        values="62 178 289; -9 178 289; 6 178 289; -3 178 289; 2.5 178 289; -1 178 289; 1 178 289"
                        dur="2.2s"
                        begin="prize3StartPoint.end"
                        calcMode="spline"
                        keySplines="0.45, 0, 0.55, 1; 0.45, 0, 0.55, 1; 0.45, 0, 0.55, 1; 0.45, 0, 0.55, 1; 0.45, 0, 0.55, 1; 0.45, 0, 0.55, 1"
                        keyTimes="0; 0.2; 0.36; 0.53; 0.7; 0.86; 1"
                        fill="freeze"/>
    </g>
    <g id="flower2">
      <path d="M183.79,264.77c2.3,9.1-2.27,18.12-2.27,18.12s-8.32-5.74-10.63-14.85,2.27-18.12,2.27-18.12,8.32,5.75,10.63,14.85" fill="#3b7bf2"/>
      <path d="M199.63,285.16c-9.11,2.31-18.12-2.27-18.12-2.27s5.74-8.32,14.85-10.63,18.12,2.27,18.12,2.27-5.75,8.32-14.85,10.63" fill="#3b7bf2"/>
      <path d="M188.56,271.67a144.15,144.15,0,0,0-10.31,16.61" fill="none" stroke="#3b7bf2" stroke-linecap="round" stroke-linejoin="round" stroke-width="2"/>
      <path d="M203.69,264.19c-6.17,7.08-16.19,8.44-16.19,8.44s0-10.11,6.16-17.18S209.85,247,209.85,247s0,10.11-6.16,17.19" fill="#76abff"/>
      <animateTransform attributeName="transform"
                  type="rotate"
                  values="50 178 289; -11 178 289; 9 178 289; 1 178 289; 6 178 289; 3 178 289; 4 178 289"
                  dur="2.2s"
                  begin="prize3StartPoint.end"
                  calcMode="spline"
                  keySplines="0.45, 0, 0.55, 1; 0.45, 0, 0.55, 1; 0.45, 0, 0.55, 1; 0.45, 0, 0.55, 1; 0.45, 0, 0.55, 1; 0.45, 0, 0.55, 1"
                  keyTimes="0; 0.24; 0.4; 0.53; 0.7; 0.86; 1"
                  fill="freeze"/>
    </g>
    <g id="bird" transform="translate(18 -8)">
      <path d="M279.2,183.8A4.89,4.89,0,0,1,283,179h0l21.07-5.4c-7.78,14.84-19.18,15.07-20,15.07h0a4.9,4.9,0,0,1-4.85-4.9" fill="#fff">
        <animate attributeName="d"
                  from="M 279.2 183.8 C 279.192 182.687 279.565 181.604 280.256 180.732 C 280.947 179.859 281.915 179.248 283 179 L 283 179 C 290.023 177.2 297.047 175.4 304.07 173.6 C 296.29 188.44 284.89 188.67 284.07 188.67 L 284.07 188.67 C 282.78 188.657 281.545 188.134 280.637 187.217 C 279.73 186.3 279.22 185.06 279.22 183.77"
                  to="M 279.2 183.8 C 279.2 181.5 280.8 179.5 283 179 C 283 179 283 179 283 179 L 283 179 C 279.1 186.4 279.575 188.825 280.925 189.4 C 282.275 189.975 284.5 188.7 284.1 188.7 L 284.1 188.7 C 282.75 188.65 281.525 188.1 280.637 187.225 C 279.75 186.35 279.2 185.15 279.2 183.8"
                  dur="0.1s"
                  begin="prize3StartPoint.end"
                  keyTimes="0; 1"
                  keySplines="0.25, 0.1, 0.25, 1"
                  calcMode="spline"
                  repeatCount="indefinite"/>
      </path>
      <path d="M262.24,169.86l10.76,0a4.65,4.65,0,0,1,4.41-2.9,3.91,3.91,0,0,1,3.48,1.76,13.39,13.39,0,0,1,1.37,2.59c0.63,1.57,4,15.8,5.89,19.16,1.1,2,4.39,7.16,4.39,7.16a2.3,2.3,0,0,1,.31,1.15V208s-3.11-1.08-3.11-3.91v-6.53c-1.91.27-6-1.65-8.33-2.88a12.82,12.82,0,0,1-6.36-6.76,12.33,12.33,0,0,1-.11-9.16,7.13,7.13,0,0,0,.79-2.91c-0.06-1.14-1.39-2.72-2.18-4.05Z" fill="#fff"/>
      <animateTransform id="birdShow"
                        attributeName="transform"
                        type="rotate"
                        values="-36 370 290; 0 370 290"
                        dur="0.35s"
                        begin="prize3StartPoint.end"
                        calcMode="spline"
                        keySplines="0.64, 0.64, 0.58, 1"
                        keyTimes="0; 1"
                        additive="sum"/>
      <animateTransform id="birdPre"
                        attributeName="transform"
                        type="rotate"
                        values="0 280 185; 4 280 185; -12 280 185"
                        dur="0.3s"
                        begin="birdShow.end - 0.1s"
                        calcMode="spline"
                        keySplines="0, 0, 0.58, 1; 0.34, 0.34, 0.58, 1"
                        keyTimes="0; 0.2; 1"
                        additive="sum"/>
      <animateTransform attributeName="transform"
                        type="rotate"
                        values="-12 280 185; -12 280 185; 4 280 185; 4 280 185; -12 280 185"
                        dur="1.7s"
                        begin="birdPre.end"
                        calcMode="spline"
                        keySplines="0.45, 0, 0.55, 1; 0.45, 0, 0.55, 1; 0.45, 0, 0.55, 1; 0.45, 0, 0.55, 1"
                        keyTimes="0; 0.3; 0.6; 0.7; 1"
                        additive="sum"
                        repeatCount="indefinite"/>
      <animateTransform attributeName="transform"
                        type="translate"
                        values="0 0; -18 8; 0 0"
                        dur="1.7s"
                        begin="birdPre.end"
                        calcMode="spline"
                        keySplines="0.57, 0.38, 0.4, 1; 0.57, 0.38, 0.4, 1"
                        keyTimes="0; 0.5; 1"
                        additive="sum"
                        repeatCount="indefinite"/>
    </g>
    <animate attributeName="opacity"
                from="0"
                to="1"
                dur="0.001s"
                begin="prize3StartPoint.end"
                fill="freeze"/>
  </g>
  <g id="caseFrom" opacity="0">
    <g id="caseTop">
      <path d="M225.88,258.06H82.68a11.62,11.62,0,0,0-11.57,11.61v19.75H237.44V269.66a11.62,11.62,0,0,0-11.56-11.61" fill="#a67ee5"/>
      <path d="M225.88,258.06H82.68a11.62,11.62,0,0,0-11.57,11.61v19.75H237.44V269.66A11.62,11.62,0,0,0,225.88,258.06Z" fill="none" stroke="#fff" stroke-miterlimit="10" stroke-width="2"/>
      <path d="M267.11,258.06H119.23a11.81,11.81,0,0,0-11.93,11.61v19.75H279V269.66a11.81,11.81,0,0,0-11.93-11.61" fill="#a67ee5"/>
      <path d="M267.11,258.06H119.23a11.81,11.81,0,0,0-11.93,11.61v19.75H279V269.66A11.81,11.81,0,0,0,267.11,258.06Z" fill="none" stroke="#fff" stroke-miterlimit="10" stroke-width="2"/>
      <path d="M278.74,279.41a5.34,5.34,0,1,0-5.32-5.34,5.32,5.32,0,0,0,5.32,5.34" fill="#a67ee5"/>
      <ellipse cx="278.74" cy="274.07" rx="5.31" ry="5.34" fill="none" stroke="#fff" stroke-miterlimit="10" stroke-width="2"/>
      <path d="M277.62,269.66v9.75H266.89a5.72,5.72,0,0,1-5.71-5.73V258.06h4.88a11.61,11.61,0,0,1,11.56,11.61" fill="#a67ee5"/>
      <path d="M277.62,269.66v9.75H266.89a5.72,5.72,0,0,1-5.71-5.73V258.06h4.88A11.61,11.61,0,0,1,277.62,269.66Z" fill="none" stroke="#fff" stroke-miterlimit="10" stroke-width="2"/>
      <animate attributeName="opacity"
                from="1"
                to="0"
                dur="0.001s"
                begin="prize3StartPoint.end"
                fill="freeze"/>
    </g>
    <g id="caseBot">
      <path d="M280.29,318.62a5.72,5.72,0,1,0-5.12-5.69,5.43,5.43,0,0,0,5.12,5.69" fill="#a67ee5"/>
      <ellipse cx="280.29" cy="312.93" rx="5.12" ry="5.69" fill="none" stroke="#fff" stroke-miterlimit="10" stroke-width="2"/>
      <path d="M230.22,328.86h-148a11.85,11.85,0,0,1-11.95-11.67V289H242.16v28.17a11.84,11.84,0,0,1-11.94,11.67" fill="#a67ee5"/>
      <path d="M230.22,328.86h-148a11.85,11.85,0,0,1-11.95-11.67V289H242.16v28.17A11.84,11.84,0,0,1,230.22,328.86Z" fill="none" stroke="#fff" stroke-miterlimit="10" stroke-width="2"/>
      <path d="M266.72,328.86h-147a11.81,11.81,0,0,1-11.87-11.67V289H278.58v28.17a11.79,11.79,0,0,1-11.86,11.67" fill="#a67ee5"/>
      <path d="M266.72,328.86h-147a11.81,11.81,0,0,1-11.87-11.67V289H278.58v28.17A11.79,11.79,0,0,1,266.72,328.86Z" fill="none" stroke="#fff" stroke-miterlimit="10" stroke-width="2"/>
      <path d="M215,314.07H180.49a4.27,4.27,0,0,1-4.35-4.16V298.21a1.24,1.24,0,0,1,1.27-1.22h2.88a1.25,1.25,0,0,1,1.27,1.22v10a1.33,1.33,0,0,0,1.35,1.29h29.71a1.33,1.33,0,0,0,1.35-1.29v-10a1.24,1.24,0,0,1,1.27-1.22h2.88a1.25,1.25,0,0,1,1.27,1.22V309.9a4.27,4.27,0,0,1-4.35,4.16" fill="#a67ee5"/>
      <path d="M215,314.07H180.49a4.27,4.27,0,0,1-4.35-4.16V298.21a1.24,1.24,0,0,1,1.27-1.22h2.88a1.25,1.25,0,0,1,1.27,1.22v10a1.33,1.33,0,0,0,1.35,1.29h29.71a1.33,1.33,0,0,0,1.35-1.29v-10a1.24,1.24,0,0,1,1.27-1.22h2.88a1.25,1.25,0,0,1,1.27,1.22V309.9A4.27,4.27,0,0,1,215,314.07Z" fill="none" stroke="#fff" stroke-miterlimit="10" stroke-width="2"/>
      <rect x="138.58" y="282.19" width="9.1" height="12.52" fill="#a67ee5"/>
      <rect x="138.58" y="282.19" width="9.1" height="12.52" fill="none" stroke="#fff" stroke-miterlimit="10" stroke-width="2"/>
      <rect x="247.85" y="282.19" width="9.1" height="12.52" fill="#a67ee5"/>
      <rect x="247.85" y="282.19" width="9.1" height="12.52" fill="none" stroke="#fff" stroke-miterlimit="10" stroke-width="2"/>
      <path d="M278.58,317.11v-9.87h-10.4a5.67,5.67,0,0,0-5.53,5.8v15.82h4.73c6.16,0,11.2-5.29,11.2-11.75" fill="#a67ee5"/>
      <path d="M278.58,317.11v-9.87h-10.4a5.67,5.67,0,0,0-5.53,5.8v15.82h4.73C273.54,328.86,278.58,323.58,278.58,317.11Z" fill="none" stroke="#fff" stroke-miterlimit="10" stroke-width="2"/>
      <path d="M100,301.54H79.22a1,1,0,0,1-1-1V298a1,1,0,0,1,1-1H100a1,1,0,0,1,1,1v2.58a1,1,0,0,1-1,1" fill="#a67ee5"/>
      <path d="M100,301.54H79.22a1,1,0,0,1-1-1V298a1,1,0,0,1,1-1H100a1,1,0,0,1,1,1v2.58A1,1,0,0,1,100,301.54Z" fill="none" stroke="#fff" stroke-miterlimit="10" stroke-width="2"/>
    </g>
    <g id="caseFloor">
      <line x1="46.24" y1="329" x2="303.76" y2="329" fill="none" stroke="#fff" stroke-linecap="round" stroke-linejoin="round" stroke-width="2"/>
    </g>
    <animate id="prize3StartPoint"
                attributeName="opacity"
                from="0"
                to="1"
                dur="0.3s"
                begin="indefinite"
                fill="freeze"/>
    <animateTransform attributeName="transform"
                        type="translate"
                        from="100 0"
                        to="0 0"
                        dur="0.3s"
                        begin="prize3StartPoint.begin"
                        calcMode="spline"
                        keySplines="0, 0, 0.58, 1"
                        keyTimes="0; 1"
                        fill="freeze"/>
  </g>
</svg>
